# xmcd CD database file
#
# Track frame offsets:
#	150
#	27530
#	56249
#	82535
#	103895
#	137066
#	160841
#	189015
#	221837
#	258320
#
# Disc length: 3746 seconds
#
# Revision: 0
# Processed by: cddbd v1.5.2PL0 Copyright (c) Steve Scherf et al.
# Submitted via: CDex 2.16
#
DISCID=850ea00a
DTITLE=Miles Davis - Changes The 1955 Sessions - Disc 1
DYEAR=2015
DGENRE=Jazz
TTITLE0=I Didn't
TTITLE1=Will You Still Be Mine?
TTITLE2=Green Haze
TTITLE3=I See Your Face Before Me
TTITLE4=A Night In Tunisia
TTITLE5=A Gal In Calico
TTITLE6=Nature Boy
TTITLE7=Alone Together
TTITLE8=There's No You
TTITLE9=Easy Living
EXTD=YEAR: 2015
EXTT0=
EXTT1=
EXTT2=
EXTT3=
EXTT4=
EXTT5=
EXTT6=
EXTT7=
EXTT8=
EXTT9=
PLAYORDER=
